<mxfile host="app.diagrams.net" modified="2021-12-14T20:19:34.753Z" agent="5.0 (X11)" etag="4P52Eve-_lCBQOAWyxRw" version="15.9.6" type="github">
  <diagram id="53KEbxtZzM9aVqZqj_zh" name="Page-1">
    <mxGraphModel dx="934" dy="1617" grid="1" gridSize="10" guides="1" tooltips="1" connect="1" arrows="1" fold="1" page="1" pageScale="1" pageWidth="850" pageHeight="1100" math="0" shadow="0">
      <root>
        <mxCell id="0" />
        <mxCell id="1" parent="0" />
        <mxCell id="vLWNPoeS1_IZN9Z3-sMC-1" value="&lt;font style=&quot;font-size: 10px&quot;&gt;time_create&lt;/font&gt;" style="rounded=0;whiteSpace=wrap;html=1;" vertex="1" parent="1">
          <mxGeometry x="690" y="140" width="100" height="20" as="geometry" />
        </mxCell>
        <mxCell id="vLWNPoeS1_IZN9Z3-sMC-2" value="" style="endArrow=classic;html=1;rounded=0;" edge="1" parent="1">
          <mxGeometry width="50" height="50" relative="1" as="geometry">
            <mxPoint x="300" y="-20" as="sourcePoint" />
            <mxPoint x="300" y="420" as="targetPoint" />
          </mxGeometry>
        </mxCell>
        <mxCell id="vLWNPoeS1_IZN9Z3-sMC-3" value="t" style="text;html=1;strokeColor=none;fillColor=none;align=center;verticalAlign=middle;whiteSpace=wrap;rounded=0;" vertex="1" parent="1">
          <mxGeometry x="260" y="-30" width="60" height="30" as="geometry" />
        </mxCell>
        <mxCell id="vLWNPoeS1_IZN9Z3-sMC-4" value="&lt;font style=&quot;font-size: 12px&quot;&gt;Program&lt;/font&gt;" style="rounded=0;whiteSpace=wrap;html=1;fontSize=10;" vertex="1" parent="1">
          <mxGeometry x="540" y="-20" width="100" height="50" as="geometry" />
        </mxCell>
        <mxCell id="vLWNPoeS1_IZN9Z3-sMC-6" value="&lt;font style=&quot;font-size: 10px&quot;&gt;timer_settime&lt;/font&gt;" style="rounded=0;whiteSpace=wrap;html=1;fontSize=12;" vertex="1" parent="1">
          <mxGeometry x="690" y="180" width="100" height="20" as="geometry" />
        </mxCell>
        <mxCell id="vLWNPoeS1_IZN9Z3-sMC-7" value="" style="endArrow=classic;html=1;rounded=0;fontSize=10;exitX=0.5;exitY=1;exitDx=0;exitDy=0;" edge="1" parent="1" source="vLWNPoeS1_IZN9Z3-sMC-1" target="vLWNPoeS1_IZN9Z3-sMC-6">
          <mxGeometry width="50" height="50" relative="1" as="geometry">
            <mxPoint x="730" y="260" as="sourcePoint" />
            <mxPoint x="780" y="210" as="targetPoint" />
          </mxGeometry>
        </mxCell>
        <mxCell id="vLWNPoeS1_IZN9Z3-sMC-8" value="&lt;div&gt;infinite loop{&lt;/div&gt;&lt;div&gt;nanosleep&lt;br&gt;&lt;/div&gt;&lt;div&gt;}&lt;br&gt;&lt;/div&gt;" style="rounded=0;whiteSpace=wrap;html=1;fontSize=10;" vertex="1" parent="1">
          <mxGeometry x="690" y="220" width="100" height="50" as="geometry" />
        </mxCell>
        <mxCell id="vLWNPoeS1_IZN9Z3-sMC-9" value="" style="endArrow=classic;html=1;rounded=0;fontSize=10;exitX=0.5;exitY=1;exitDx=0;exitDy=0;entryX=0.5;entryY=0;entryDx=0;entryDy=0;" edge="1" parent="1" source="vLWNPoeS1_IZN9Z3-sMC-6" target="vLWNPoeS1_IZN9Z3-sMC-8">
          <mxGeometry width="50" height="50" relative="1" as="geometry">
            <mxPoint x="590" y="290" as="sourcePoint" />
            <mxPoint x="640" y="240" as="targetPoint" />
          </mxGeometry>
        </mxCell>
        <mxCell id="vLWNPoeS1_IZN9Z3-sMC-10" value="" style="endArrow=classic;html=1;rounded=0;fontSize=10;exitX=0.5;exitY=1;exitDx=0;exitDy=0;" edge="1" parent="1" source="vLWNPoeS1_IZN9Z3-sMC-8">
          <mxGeometry width="50" height="50" relative="1" as="geometry">
            <mxPoint x="720" y="340" as="sourcePoint" />
            <mxPoint x="740" y="209.9999999999999" as="targetPoint" />
            <Array as="points">
              <mxPoint x="740" y="310" />
              <mxPoint x="850" y="310" />
              <mxPoint x="850" y="210" />
            </Array>
          </mxGeometry>
        </mxCell>
        <mxCell id="vLWNPoeS1_IZN9Z3-sMC-25" style="edgeStyle=orthogonalEdgeStyle;rounded=0;orthogonalLoop=1;jettySize=auto;html=1;entryX=0.5;entryY=0;entryDx=0;entryDy=0;fontSize=10;startArrow=none;" edge="1" parent="1" source="vLWNPoeS1_IZN9Z3-sMC-47" target="vLWNPoeS1_IZN9Z3-sMC-21">
          <mxGeometry relative="1" as="geometry" />
        </mxCell>
        <mxCell id="vLWNPoeS1_IZN9Z3-sMC-26" style="edgeStyle=orthogonalEdgeStyle;rounded=0;orthogonalLoop=1;jettySize=auto;html=1;fontSize=10;startArrow=none;" edge="1" parent="1" source="vLWNPoeS1_IZN9Z3-sMC-18" target="vLWNPoeS1_IZN9Z3-sMC-1">
          <mxGeometry relative="1" as="geometry" />
        </mxCell>
        <mxCell id="vLWNPoeS1_IZN9Z3-sMC-15" value="fork" style="rounded=0;whiteSpace=wrap;html=1;fontSize=10;" vertex="1" parent="1">
          <mxGeometry x="540" y="50" width="100" height="30" as="geometry" />
        </mxCell>
        <mxCell id="vLWNPoeS1_IZN9Z3-sMC-16" value="" style="endArrow=classic;html=1;rounded=0;fontSize=10;exitX=0.5;exitY=1;exitDx=0;exitDy=0;entryX=0.5;entryY=0;entryDx=0;entryDy=0;" edge="1" parent="1" source="vLWNPoeS1_IZN9Z3-sMC-4" target="vLWNPoeS1_IZN9Z3-sMC-15">
          <mxGeometry width="50" height="50" relative="1" as="geometry">
            <mxPoint x="590" y="29.289321881345245" as="sourcePoint" />
            <mxPoint x="650" y="300" as="targetPoint" />
          </mxGeometry>
        </mxCell>
        <mxCell id="vLWNPoeS1_IZN9Z3-sMC-24" value="" style="edgeStyle=orthogonalEdgeStyle;rounded=0;orthogonalLoop=1;jettySize=auto;html=1;fontSize=10;" edge="1" parent="1" source="vLWNPoeS1_IZN9Z3-sMC-21" target="vLWNPoeS1_IZN9Z3-sMC-22">
          <mxGeometry relative="1" as="geometry" />
        </mxCell>
        <mxCell id="vLWNPoeS1_IZN9Z3-sMC-21" value="&lt;div&gt;n times loop{&lt;/div&gt;&lt;div&gt;nanosleep&lt;/div&gt;&lt;div&gt;kill(signal, child)&lt;br&gt;&lt;/div&gt;&lt;div&gt;}&lt;br&gt;&lt;/div&gt;" style="rounded=0;whiteSpace=wrap;html=1;fontSize=10;" vertex="1" parent="1">
          <mxGeometry x="361.25" y="145" width="110" height="60" as="geometry" />
        </mxCell>
        <mxCell id="vLWNPoeS1_IZN9Z3-sMC-50" value="" style="edgeStyle=orthogonalEdgeStyle;rounded=0;orthogonalLoop=1;jettySize=auto;html=1;fontSize=10;" edge="1" parent="1" source="vLWNPoeS1_IZN9Z3-sMC-22" target="vLWNPoeS1_IZN9Z3-sMC-42">
          <mxGeometry relative="1" as="geometry" />
        </mxCell>
        <mxCell id="vLWNPoeS1_IZN9Z3-sMC-54" style="edgeStyle=orthogonalEdgeStyle;rounded=0;orthogonalLoop=1;jettySize=auto;html=1;fontSize=10;startArrow=none;dashed=1;dashPattern=1 3;strokeWidth=2;" edge="1" parent="1" source="vLWNPoeS1_IZN9Z3-sMC-45">
          <mxGeometry relative="1" as="geometry">
            <mxPoint x="739.9999999999998" y="300.0000000000002" as="targetPoint" />
          </mxGeometry>
        </mxCell>
        <mxCell id="vLWNPoeS1_IZN9Z3-sMC-22" value="kill(SIGTERM, child)" style="rounded=0;whiteSpace=wrap;html=1;fontSize=10;" vertex="1" parent="1">
          <mxGeometry x="361.25" y="280" width="110" height="40" as="geometry" />
        </mxCell>
        <mxCell id="vLWNPoeS1_IZN9Z3-sMC-34" value="" style="endArrow=classic;dashed=1;html=1;dashPattern=1 3;strokeWidth=2;rounded=0;fontSize=10;entryX=0;entryY=0.5;entryDx=0;entryDy=0;startArrow=none;" edge="1" parent="1" source="vLWNPoeS1_IZN9Z3-sMC-37" target="vLWNPoeS1_IZN9Z3-sMC-8">
          <mxGeometry width="50" height="50" relative="1" as="geometry">
            <mxPoint x="511.2499999999998" y="179.31000000000023" as="sourcePoint" />
            <mxPoint x="580" y="260" as="targetPoint" />
            <Array as="points">
              <mxPoint x="620" y="179" />
              <mxPoint x="620" y="245" />
            </Array>
          </mxGeometry>
        </mxCell>
        <mxCell id="vLWNPoeS1_IZN9Z3-sMC-42" value="END" style="rounded=0;whiteSpace=wrap;html=1;fontSize=10;" vertex="1" parent="1">
          <mxGeometry x="360" y="350" width="112.5" height="30" as="geometry" />
        </mxCell>
        <mxCell id="vLWNPoeS1_IZN9Z3-sMC-18" value="Child" style="text;html=1;strokeColor=none;fillColor=none;align=center;verticalAlign=middle;whiteSpace=wrap;rounded=0;fontSize=10;" vertex="1" parent="1">
          <mxGeometry x="710" y="90" width="60" height="30" as="geometry" />
        </mxCell>
        <mxCell id="vLWNPoeS1_IZN9Z3-sMC-46" value="" style="edgeStyle=orthogonalEdgeStyle;rounded=0;orthogonalLoop=1;jettySize=auto;html=1;fontSize=10;endArrow=none;" edge="1" parent="1" source="vLWNPoeS1_IZN9Z3-sMC-15" target="vLWNPoeS1_IZN9Z3-sMC-18">
          <mxGeometry relative="1" as="geometry">
            <mxPoint x="639.9999999999998" y="65.00000000000023" as="sourcePoint" />
            <mxPoint x="740.0000000000002" y="200.00000000000023" as="targetPoint" />
          </mxGeometry>
        </mxCell>
        <mxCell id="vLWNPoeS1_IZN9Z3-sMC-47" value="Parent" style="text;html=1;strokeColor=none;fillColor=none;align=center;verticalAlign=middle;whiteSpace=wrap;rounded=0;fontSize=10;" vertex="1" parent="1">
          <mxGeometry x="386.25" y="90" width="60" height="30" as="geometry" />
        </mxCell>
        <mxCell id="vLWNPoeS1_IZN9Z3-sMC-48" value="" style="edgeStyle=orthogonalEdgeStyle;rounded=0;orthogonalLoop=1;jettySize=auto;html=1;entryX=0.5;entryY=0;entryDx=0;entryDy=0;fontSize=10;endArrow=none;" edge="1" parent="1" source="vLWNPoeS1_IZN9Z3-sMC-15" target="vLWNPoeS1_IZN9Z3-sMC-47">
          <mxGeometry relative="1" as="geometry">
            <mxPoint x="539.9999999999998" y="65.00000000000023" as="sourcePoint" />
            <mxPoint x="455" y="200.00000000000023" as="targetPoint" />
          </mxGeometry>
        </mxCell>
        <mxCell id="vLWNPoeS1_IZN9Z3-sMC-45" value="send SIGTERM to child" style="text;whiteSpace=wrap;html=1;fontSize=10;" vertex="1" parent="1">
          <mxGeometry x="550" y="290" width="130" height="20" as="geometry" />
        </mxCell>
        <mxCell id="vLWNPoeS1_IZN9Z3-sMC-58" value="" style="endArrow=none;dashed=1;html=1;dashPattern=1 3;strokeWidth=2;rounded=0;fontSize=10;exitX=1;exitY=0.5;exitDx=0;exitDy=0;" edge="1" parent="1" source="vLWNPoeS1_IZN9Z3-sMC-22">
          <mxGeometry width="50" height="50" relative="1" as="geometry">
            <mxPoint x="520" y="360" as="sourcePoint" />
            <mxPoint x="550" y="300" as="targetPoint" />
          </mxGeometry>
        </mxCell>
        <mxCell id="vLWNPoeS1_IZN9Z3-sMC-37" value="send signal to child" style="text;strokeColor=none;fillColor=none;align=left;verticalAlign=middle;spacingLeft=4;spacingRight=4;overflow=hidden;points=[[0,0.5],[1,0.5]];portConstraint=eastwest;rotatable=0;fontSize=10;" vertex="1" parent="1">
          <mxGeometry x="490" y="160" width="110" height="30" as="geometry" />
        </mxCell>
        <mxCell id="vLWNPoeS1_IZN9Z3-sMC-60" value="" style="endArrow=none;dashed=1;html=1;dashPattern=1 3;strokeWidth=2;rounded=0;fontSize=10;exitX=1;exitY=0.5;exitDx=0;exitDy=0;entryX=0;entryY=0.5;entryDx=0;entryDy=0;" edge="1" parent="1" source="vLWNPoeS1_IZN9Z3-sMC-21" target="vLWNPoeS1_IZN9Z3-sMC-37">
          <mxGeometry width="50" height="50" relative="1" as="geometry">
            <mxPoint x="500" y="270" as="sourcePoint" />
            <mxPoint x="550" y="220" as="targetPoint" />
          </mxGeometry>
        </mxCell>
      </root>
    </mxGraphModel>
  </diagram>
</mxfile>
